<?xml version="1.0" encoding="utf-8"?>
<!-- Generator: Adobe Illustrator 25.0.1, SVG Export Plug-In . SVG Version: 6.00 Build 0)  -->
<svg version="1.1" xmlns="http://www.w3.org/2000/svg" xmlns:xlink="http://www.w3.org/1999/xlink" x="0px" y="0px"
	 viewBox="0 0 1650.1 1451.2" style="enable-background:new 0 0 1650.1 1451.2;" xml:space="preserve">
<style type="text/css">
	.st0{display:none;}
	.st1{fill:none;stroke:#000000;stroke-width:3;stroke-linecap:round;stroke-linejoin:round;stroke-miterlimit:10;}
	.st2{fill:none;stroke:#000000;stroke-linecap:round;stroke-linejoin:round;stroke-miterlimit:10;}
</style>
<g id="Calque_2" class="st0">
	
		<image style="display:inline;overflow:visible;opacity:0.58;" width="4032" height="3024" xlink:href="../../../Camera Uploads/2019-06-23 07.49.20-1.jpg"  transform="matrix(-0.5069 0 0 -0.5069 1838.11 1536.6467)">
	</image>
</g>
<g id="_x30_">
	<g id="LWPOLYLINE_2_">
		<polygon class="st1" points="1210,1367.2 473.5,1367.2 105.3,729.4 473.5,91.6 1210,91.6 1578.2,729.4 		"/>
	</g>
	<g id="LWPOLYLINE_8_">
		<rect x="400.4" y="280.8" class="st2" width="878.7" height="524.4"/>
	</g>
	<g>
		<g>
			<g id="LWPOLYLINE_3_">
				<rect x="785.2" y="873.9" class="st2" width="544.3" height="155.9"/>
			</g>
			<rect x="918.5" y="1029.8" class="st2" width="99.2" height="56.7"/>
			<rect x="918.5" y="1029.8" class="st2" width="14.2" height="14.2"/>
			<rect x="620.8" y="1056.2" class="st2" width="297.6" height="19.8"/>
			<rect x="535.8" y="1037.7" class="st2" width="85" height="56.7"/>
			<rect x="1199" y="1029.8" class="st2" width="48.2" height="28.3"/>
		</g>
		<g>
			<line class="st2" x1="532.5" y1="1115.9" x2="532.5" y2="1138.6"/>
			<line class="st2" x1="534.2" y1="1138.6" x2="534.2" y2="1115.9"/>
			<polyline class="st2" points="517.4,1137.9 532.5,1137.9 532.5,1116.7 			"/>
			<line class="st2" x1="517.4" y1="1116.7" x2="517.4" y2="1137.9"/>
			<line class="st2" x1="534.2" y1="1115.9" x2="532.5" y2="1115.9"/>
			<line class="st2" x1="532.5" y1="1116.7" x2="517.4" y2="1116.7"/>
			<line class="st2" x1="535" y1="1087.1" x2="535" y2="1046.1"/>
			<line class="st2" x1="500.6" y1="1087.1" x2="535" y2="1087.1"/>
			<line class="st2" x1="500.6" y1="1046.1" x2="500.6" y2="1087.1"/>
			<line class="st2" x1="535" y1="1046.1" x2="500.6" y2="1046.1"/>
			<path class="st2" d="M522.3,1157.3c4.6,0,8.5-3.8,8.5-8.5c0-0.1,0-0.2,0-0.1"/>
			<line class="st2" x1="380.6" y1="1157.3" x2="522.3" y2="1157.3"/>
			<path class="st2" d="M372,1148.8C372,1148.7,372,1148.8,372,1148.8c0,4.7,3.8,8.5,8.5,8.5c0.1,0,0.2,0,0.1,0"/>
			<line class="st2" x1="530.7" y1="1148.8" x2="530.7" y2="925"/>
			<line class="st2" x1="372.1" y1="925" x2="372.1" y2="1148.8"/>
			<path class="st2" d="M530.7,925c-0.1-4.6-3.8-8.4-8.5-8.5"/>
			<path class="st2" d="M380.6,916.5C380.7,916.5,380.6,916.5,380.6,916.5c-4.7,0-8.5,3.8-8.5,8.5"/>
			<line class="st2" x1="522.3" y1="916.4" x2="380.6" y2="916.4"/>
		</g>
	</g>
</g>
</svg>
